<?xml version="1.0" encoding="utf-8"?>
<!-- Generator: Adobe Illustrator 26.5.0, SVG Export Plug-In . SVG Version: 6.00 Build 0)  -->
<svg version="1.1" id="Calque_1" xmlns="http://www.w3.org/2000/svg" xmlns:xlink="http://www.w3.org/1999/xlink" x="0px" y="0px"
	 viewBox="0 0 50 50" style="enable-background:new 0 0 50 50;" xml:space="preserve">
<style type="text/css">
	.st0{fill:#FFFFFF;stroke:#020203;stroke-width:3;stroke-miterlimit:10;}
	.st1{fill:none;stroke:#020203;stroke-width:3;stroke-miterlimit:10;}
	.st2{fill:#020203;}
</style>
<path class="st0" d="M47.71,22.55c0,0.71,0,24.29,0,24.29H2.29V2.63h28.32"/>
<polyline class="st0" points="47.48,13.25 47.48,2.63 37.71,2.63 "/>
<line class="st1" x1="47.48" y1="2.63" x2="35.82" y2="16.16"/>
<g>
	<path class="st2" d="M10.13,23.33L9.4,22.89c-0.46-0.28-0.78-0.56-0.97-0.83c-0.19-0.27-0.29-0.58-0.29-0.93
		c0-0.52,0.18-0.96,0.55-1.28c0.37-0.33,0.84-0.49,1.42-0.49c0.56,0,1.07,0.16,1.54,0.47v1.09c-0.48-0.47-1-0.69-1.55-0.69
		c-0.31,0-0.57,0.07-0.77,0.22c-0.2,0.15-0.3,0.33-0.3,0.56c0,0.2,0.07,0.39,0.22,0.56c0.15,0.17,0.38,0.36,0.71,0.55l0.74,0.43
		c0.82,0.49,1.23,1.11,1.23,1.86c0,0.54-0.18,0.97-0.54,1.31c-0.36,0.33-0.83,0.51-1.4,0.51c-0.66,0-1.26-0.2-1.81-0.61V24.4
		c0.51,0.65,1.12,0.98,1.8,0.98c0.3,0,0.55-0.08,0.75-0.25c0.2-0.16,0.3-0.38,0.3-0.63C11.01,24.09,10.72,23.69,10.13,23.33z"/>
	<path class="st2" d="M15.55,21.73h0.98l-3.12,6.65h-0.97l1.49-3.19l-1.7-3.46h1l1.19,2.48L15.55,21.73z"/>
	<path class="st2" d="M18.01,21.73v0.56c0.39-0.43,0.83-0.65,1.32-0.65c0.28,0,0.53,0.07,0.77,0.21c0.24,0.14,0.42,0.33,0.54,0.58
		s0.19,0.64,0.19,1.18v2.52h-0.87v-2.51c0-0.45-0.07-0.77-0.2-0.96c-0.14-0.2-0.37-0.29-0.69-0.29c-0.41,0-0.76,0.2-1.05,0.62v3.15
		h-0.89v-4.4L18.01,21.73L18.01,21.73z"/>
	<path class="st2" d="M21.43,22.43l1.63-1.61v0.91h1.4v0.78h-1.4v2.16c0,0.51,0.21,0.75,0.63,0.75c0.31,0,0.65-0.11,0.99-0.31v0.82
		c-0.33,0.19-0.7,0.29-1.09,0.29c-0.4,0-0.73-0.11-1-0.35c-0.08-0.07-0.16-0.15-0.2-0.24c-0.05-0.09-0.1-0.2-0.14-0.34
		c-0.04-0.14-0.06-0.41-0.06-0.81v-1.95h-0.77L21.43,22.43L21.43,22.43z"/>
	<path class="st2" d="M25.28,19.45h0.87v2.86c0.37-0.44,0.82-0.66,1.36-0.66c0.29,0,0.56,0.07,0.79,0.22
		c0.24,0.15,0.41,0.35,0.52,0.6c0.11,0.25,0.17,0.65,0.17,1.15v2.51h-0.87v-2.72c0-0.32-0.08-0.58-0.24-0.78
		c-0.16-0.2-0.37-0.29-0.62-0.29c-0.19,0-0.38,0.05-0.54,0.15s-0.36,0.26-0.56,0.49v3.15h-0.87L25.28,19.45L25.28,19.45z"/>
	<path class="st2" d="M33.96,24h-3.1c0.02,0.42,0.16,0.76,0.42,1s0.6,0.38,1,0.38c0.57,0,1.1-0.18,1.59-0.54v0.85
		c-0.27,0.18-0.53,0.31-0.8,0.38c-0.27,0.07-0.57,0.11-0.92,0.11c-0.48,0-0.87-0.1-1.18-0.3c-0.3-0.2-0.54-0.47-0.72-0.81
		C30.09,24.75,30,24.35,30,23.91c0-0.67,0.19-1.22,0.57-1.63c0.38-0.42,0.87-0.63,1.48-0.63c0.58,0,1.05,0.2,1.4,0.61
		c0.34,0.41,0.52,0.96,0.52,1.64L33.96,24L33.96,24z M30.88,23.49h2.21c-0.02-0.35-0.12-0.61-0.31-0.8
		c-0.19-0.19-0.43-0.29-0.74-0.29c-0.31,0-0.57,0.1-0.77,0.29S30.94,23.14,30.88,23.49z M31.87,19.34l0.66,1.44h-0.54l-1.1-1.44
		H31.87z"/>
	<path class="st2" d="M34.68,25.82v-0.94c0.25,0.17,0.5,0.31,0.75,0.42c0.25,0.11,0.47,0.16,0.65,0.16c0.18,0,0.33-0.04,0.47-0.13
		c0.13-0.09,0.2-0.2,0.2-0.32c0-0.13-0.04-0.24-0.13-0.32c-0.09-0.08-0.27-0.2-0.55-0.37c-0.56-0.31-0.93-0.58-1.1-0.8
		c-0.17-0.22-0.26-0.47-0.26-0.73c0-0.33,0.13-0.61,0.39-0.83c0.26-0.21,0.6-0.32,1.02-0.32c0.43,0,0.87,0.12,1.32,0.37v0.86
		c-0.51-0.31-0.94-0.47-1.27-0.47c-0.17,0-0.3,0.03-0.41,0.11c-0.11,0.07-0.16,0.16-0.16,0.29c0,0.11,0.05,0.2,0.14,0.29
		c0.1,0.09,0.26,0.2,0.5,0.33l0.31,0.18c0.74,0.42,1.1,0.87,1.1,1.38c0,0.36-0.14,0.65-0.42,0.89c-0.29,0.23-0.65,0.34-1.09,0.34
		c-0.26,0-0.5-0.02-0.7-0.08C35.24,26.09,34.99,25.97,34.68,25.82z"/>
	<path class="st2" d="M42.43,24h-3.1c0.02,0.42,0.16,0.76,0.42,1s0.6,0.38,1,0.38c0.57,0,1.1-0.18,1.59-0.54v0.85
		c-0.27,0.18-0.53,0.31-0.8,0.38s-0.57,0.11-0.92,0.11c-0.48,0-0.87-0.1-1.18-0.3c-0.3-0.2-0.54-0.47-0.72-0.81
		c-0.18-0.33-0.27-0.74-0.27-1.18c0-0.67,0.19-1.22,0.57-1.63s0.87-0.63,1.48-0.63c0.58,0,1.05,0.2,1.4,0.61
		c0.34,0.41,0.52,0.96,0.52,1.64L42.43,24L42.43,24z M39.35,23.49h2.21c-0.02-0.35-0.12-0.61-0.31-0.8
		c-0.19-0.19-0.43-0.29-0.74-0.29c-0.31,0-0.57,0.1-0.77,0.29S39.41,23.14,39.35,23.49z"/>
</g>
</svg>
