<?xml version="1.0" encoding="utf-8"?>
<!-- Generator: Adobe Illustrator 26.5.0, SVG Export Plug-In . SVG Version: 6.00 Build 0)  -->
<svg version="1.1" id="Calque_1" xmlns="http://www.w3.org/2000/svg" xmlns:xlink="http://www.w3.org/1999/xlink" x="0px" y="0px"
	 viewBox="0 0 595.28 841.89" style="enable-background:new 0 0 595.28 841.89;" xml:space="preserve">
<style type="text/css">
	.st0{fill:#FFFFFF;stroke:#000000;stroke-width:3;stroke-miterlimit:10;}
</style>
<path class="st0" d="M135.11,105.95c0,0.87,0,29.73,0,29.73H79.52V81.57h34.67"/>
<polyline class="st0" points="134.83,94.56 134.83,81.57 122.87,81.57 "/>
<line class="st0" x1="134.83" y1="81.57" x2="120.56" y2="98.13"/>
<g>
	<path d="M89.11,106.91l-0.89-0.54c-0.56-0.34-0.96-0.68-1.19-1.01s-0.35-0.71-0.35-1.14c0-0.64,0.22-1.17,0.67-1.57
		s1.03-0.6,1.74-0.6c0.68,0,1.31,0.19,1.88,0.58v1.33c-0.59-0.57-1.22-0.85-1.9-0.85c-0.38,0-0.7,0.09-0.94,0.27
		s-0.37,0.4-0.37,0.68c0,0.25,0.09,0.48,0.27,0.69s0.47,0.44,0.87,0.67l0.9,0.53c1,0.6,1.5,1.36,1.5,2.28c0,0.66-0.22,1.19-0.66,1.6
		s-1.01,0.62-1.71,0.62c-0.81,0-1.54-0.25-2.21-0.75v-1.49c0.63,0.8,1.37,1.2,2.2,1.2c0.37,0,0.67-0.1,0.92-0.31
		c0.24-0.2,0.37-0.46,0.37-0.77C90.19,107.83,89.83,107.35,89.11,106.91z"/>
	<path d="M95.75,104.94h1.2l-3.82,8.14h-1.19l1.83-3.91l-2.08-4.23h1.22l1.46,3.04L95.75,104.94z"/>
	<path d="M98.76,104.94v0.69c0.48-0.53,1.02-0.79,1.62-0.79c0.34,0,0.65,0.09,0.94,0.26s0.51,0.41,0.66,0.71s0.23,0.78,0.23,1.44
		v3.08h-1.07v-3.07c0-0.55-0.08-0.94-0.25-1.18s-0.45-0.35-0.84-0.35c-0.5,0-0.93,0.25-1.28,0.76v3.85h-1.09v-5.39H98.76z"/>
	<path d="M102.94,105.8l2-1.97v1.11h1.71v0.96h-1.71v2.64c0,0.62,0.26,0.92,0.77,0.92c0.38,0,0.79-0.13,1.21-0.38v1
		c-0.41,0.23-0.86,0.35-1.34,0.35c-0.49,0-0.89-0.14-1.22-0.43c-0.1-0.09-0.19-0.18-0.25-0.29s-0.12-0.25-0.17-0.42
		s-0.07-0.5-0.07-0.99v-2.39h-0.94V105.8z"/>
	<path d="M107.66,102.15h1.07v3.5c0.45-0.54,1-0.81,1.66-0.81c0.36,0,0.68,0.09,0.97,0.27s0.5,0.43,0.64,0.74s0.21,0.79,0.21,1.41
		v3.07h-1.07V107c0-0.39-0.1-0.71-0.29-0.95s-0.45-0.36-0.76-0.36c-0.23,0-0.46,0.06-0.66,0.18s-0.44,0.32-0.69,0.6v3.86h-1.07
		V102.15z"/>
	<path d="M118.28,107.73h-3.79c0.03,0.52,0.2,0.93,0.52,1.23s0.73,0.46,1.23,0.46c0.7,0,1.35-0.22,1.95-0.66v1.04
		c-0.33,0.22-0.65,0.38-0.98,0.47s-0.7,0.14-1.13,0.14c-0.59,0-1.07-0.12-1.44-0.37s-0.66-0.58-0.88-0.99s-0.33-0.9-0.33-1.44
		c0-0.82,0.23-1.49,0.7-2s1.07-0.77,1.81-0.77c0.71,0,1.29,0.25,1.71,0.75s0.64,1.17,0.64,2.01V107.73z M114.51,107.1h2.71
		c-0.03-0.43-0.15-0.75-0.38-0.98s-0.53-0.35-0.91-0.35s-0.7,0.12-0.94,0.35S114.59,106.67,114.51,107.1z M115.72,102.02l0.81,1.76
		h-0.66l-1.35-1.76H115.72z"/>
	<path d="M119.17,109.95v-1.15c0.3,0.21,0.61,0.38,0.92,0.51s0.58,0.2,0.79,0.2c0.22,0,0.41-0.05,0.57-0.16s0.24-0.24,0.24-0.39
		c0-0.16-0.05-0.29-0.16-0.39s-0.33-0.25-0.67-0.45c-0.69-0.38-1.14-0.71-1.35-0.98s-0.32-0.57-0.32-0.89
		c0-0.41,0.16-0.75,0.48-1.01s0.74-0.39,1.25-0.39c0.53,0,1.07,0.15,1.62,0.45v1.05c-0.63-0.38-1.15-0.57-1.55-0.57
		c-0.21,0-0.37,0.04-0.5,0.13c-0.13,0.09-0.19,0.2-0.19,0.35c0,0.13,0.06,0.24,0.17,0.36c0.12,0.11,0.32,0.25,0.61,0.41l0.38,0.22
		c0.9,0.51,1.35,1.07,1.35,1.69c0,0.44-0.17,0.8-0.52,1.09c-0.35,0.28-0.79,0.42-1.33,0.42c-0.32,0-0.61-0.03-0.86-0.1
		S119.55,110.13,119.17,109.95z"/>
	<path d="M128.65,107.73h-3.79c0.03,0.52,0.2,0.93,0.52,1.23s0.73,0.46,1.23,0.46c0.7,0,1.35-0.22,1.95-0.66v1.04
		c-0.33,0.22-0.65,0.38-0.98,0.47s-0.7,0.14-1.13,0.14c-0.59,0-1.07-0.12-1.44-0.37s-0.66-0.58-0.88-0.99s-0.33-0.9-0.33-1.44
		c0-0.82,0.23-1.49,0.7-2s1.07-0.77,1.81-0.77c0.71,0,1.29,0.25,1.71,0.75s0.64,1.17,0.64,2.01V107.73z M124.88,107.1h2.71
		c-0.03-0.43-0.15-0.75-0.38-0.98s-0.53-0.35-0.91-0.35s-0.7,0.12-0.94,0.35S124.95,106.67,124.88,107.1z"/>
</g>
</svg>
